TITLE ""
FILE "Step1_Track29.mp3" MP3
  TRACK 01 AUDIO
    TITLE "Step1_Track29_01"
    INDEX 01 00:00:00
  TRACK 02 AUDIO
    TITLE "Step1_Track29_02"
    INDEX 01 00:00:24
  TRACK 03 AUDIO
    TITLE "Step1_Track29_03"
    INDEX 01 00:02:05
  TRACK 04 AUDIO
    TITLE "Step1_Track29_04"
    INDEX 01 00:02:62
  TRACK 05 AUDIO
    TITLE "Step1_Track29_05"
    INDEX 01 00:03:58
  TRACK 06 AUDIO
    TITLE "Step1_Track29_06"
    INDEX 01 00:03:73
  TRACK 07 AUDIO
    TITLE "Step1_Track29_07"
    INDEX 01 00:06:36
  TRACK 08 AUDIO
    TITLE "Step1_Track29_08"
    INDEX 01 00:06:58
  TRACK 09 AUDIO
    TITLE "Step1_Track29_09"
    INDEX 01 00:07:55
  TRACK 10 AUDIO
    TITLE "Step1_Track29_10"
    INDEX 01 00:07:57
  TRACK 11 AUDIO
    TITLE "Step1_Track29_11"
    INDEX 01 00:09:43
  TRACK 12 AUDIO
    TITLE "Step1_Track29_12"
    INDEX 01 00:10:01
  TRACK 13 AUDIO
    TITLE "Step1_Track29_13"
    INDEX 01 00:11:04
  TRACK 14 AUDIO
    TITLE "Step1_Track29_14"
    INDEX 01 00:11:14
  TRACK 15 AUDIO
    TITLE "Step1_Track29_15"
    INDEX 01 00:13:01
  TRACK 16 AUDIO
    TITLE "Step1_Track29_16"
    INDEX 01 00:13:29
  TRACK 17 AUDIO
    TITLE "Step1_Track29_17"
    INDEX 01 00:14:34
  TRACK 18 AUDIO
    TITLE "Step1_Track29_18"
    INDEX 01 00:14:40
  TRACK 19 AUDIO
    TITLE "Step1_Track29_19"
    INDEX 01 00:16:19
  TRACK 20 AUDIO
    TITLE "Step1_Track29_20"
    INDEX 01 00:16:66
  TRACK 21 AUDIO
    TITLE "Step1_Track29_21"
    INDEX 01 00:17:70
  TRACK 22 AUDIO
    TITLE "Step1_Track29_22"
    INDEX 01 00:17:71
  TRACK 23 AUDIO
    TITLE "Step1_Track29_23"
    INDEX 01 00:20:17
  TRACK 24 AUDIO
    TITLE "Step1_Track29_24"
    INDEX 01 00:20:54
  TRACK 25 AUDIO
    TITLE "Step1_Track29_25"
    INDEX 01 00:21:59
  TRACK 26 AUDIO
    TITLE "Step1_Track29_26"
    INDEX 01 00:21:67
  TRACK 27 AUDIO
    TITLE "Step1_Track29_27"
    INDEX 01 00:24:13
  TRACK 28 AUDIO
    TITLE "Step1_Track29_28"
    INDEX 01 00:24:64
  TRACK 29 AUDIO
    TITLE "Step1_Track29_29"
    INDEX 01 00:25:69
  TRACK 30 AUDIO
    TITLE "Step1_Track29_30"
    INDEX 01 00:26:02
  TRACK 31 AUDIO
    TITLE "Step1_Track29_31"
    INDEX 01 00:28:42
  TRACK 32 AUDIO
    TITLE "Step1_Track29_32"
    INDEX 01 00:28:65
  TRACK 33 AUDIO
    TITLE "Step1_Track29_33"
    INDEX 01 00:29:57
  TRACK 34 AUDIO
    TITLE "Step1_Track29_34"
    INDEX 01 00:29:73
  TRACK 35 AUDIO
    TITLE "Step1_Track29_35"
    INDEX 01 00:31:38
  TRACK 36 AUDIO
    TITLE "Step1_Track29_36"
    INDEX 01 00:31:68
  TRACK 37 AUDIO
    TITLE "Step1_Track29_37"
    INDEX 01 00:32:71
  TRACK 38 AUDIO
    TITLE "Step1_Track29_38"
    INDEX 01 00:32:73
  TRACK 39 AUDIO
    TITLE "Step1_Track29_39"
    INDEX 01 00:34:62
  TRACK 40 AUDIO
    TITLE "Step1_Track29_40"
    INDEX 01 00:35:15
  TRACK 41 AUDIO
    TITLE "Step1_Track29_41"
    INDEX 01 00:36:10
  TRACK 42 AUDIO
    TITLE "Step1_Track29_42"
    INDEX 01 00:36:26
  TRACK 43 AUDIO
    TITLE "Step1_Track29_43"
    INDEX 01 00:38:56
